<svg xmlns="http://www.w3.org/2000/svg" data-name="Layer 1" viewBox="0 0 128 160" x="0px" y="0px"><title>94 Web Icon Set 46 expanded</title><path d="M89.88281,39.89648C89.88281,44.458,97.97754,46.5,106,46.5s16.11719-2.042,16.11719-6.60352c0-3.40045-4.502-5.39911-10.11719-6.19666V36a5.99211,5.99211,0,0,1-.25006,1.70746c3.6535.56635,5.75641,1.58221,6.2901,2.189-.76855.876-4.79492,2.60352-12.04,2.60352s-11.27148-1.72754-12.04-2.60352c.53369-.60681,2.6366-1.62268,6.2901-2.189A5.99211,5.99211,0,0,1,100,36V33.69983C94.38483,34.49738,89.88281,36.496,89.88281,39.89648Z"/><path d="M9.41516,115.6723c-4.35022.99683-7.53235,2.86523-7.53235,5.72418C1.88281,125.958,9.97754,128,18,128s16.11719-2.042,16.11719-6.60352c0-2.88794-3.24982-4.763-7.668-5.75208-.87872,1.41937-1.6637,2.65179-2.29749,3.63019,3.403.57648,5.37476,1.538,5.88831,2.12189C29.27148,122.27246,25.24512,124,18,124s-11.27148-1.72754-12.04-2.60352c.51093-.58093,2.46576-1.53528,5.83624-2.11273C11.13287,118.30518,10.32129,117.08374,9.41516,115.6723Z"/><path d="M18,119.71387h.02441a2.003,2.003,0,0,0,1.64063-.8916C21.33691,116.31152,36,94.00781,36,84.22754,36,74.51758,27.58887,66,18,66S0,74.51758,0,84.22754c0,11.2041,15.69531,33.68457,16.36328,34.63574A2.001,2.001,0,0,0,18,119.71387ZM18,70c7.458,0,14,6.64844,14,14.22754,0,6.47754-9.00488,21.9668-14.04,29.877C12.9248,106.52637,4,91.57227,4,84.22754,4,76.64844,10.542,70,18,70Z"/><path d="M27.27246,83.53613A9.10462,9.10462,0,0,0,18,74.63086a8.91207,8.91207,0,1,0,0,17.80957A9.10381,9.10381,0,0,0,27.27246,83.53613Zm-14.54492,0A5.10442,5.10442,0,0,1,18,78.63086a4.91761,4.91761,0,1,1,0,9.80957A5.10428,5.10428,0,0,1,12.72754,83.53613Z"/><path d="M120.8252,114.63086a1.99917,1.99917,0,0,0,2.80664-.34766,20.97041,20.97041,0,0,0,1.82422-2.76758,2.0003,2.0003,0,0,0-3.50391-1.93066,16.98057,16.98057,0,0,1-1.47461,2.23926A1.99929,1.99929,0,0,0,120.8252,114.63086Z"/><path d="M45,119a2.0001,2.0001,0,0,0,2,2h3a2,2,0,0,0,0-4H47A2.0001,2.0001,0,0,0,45,119Z"/><path d="M89,119a2.0001,2.0001,0,0,0,2,2h3a2,2,0,0,0,0-4H91A2.0001,2.0001,0,0,0,89,119Z"/><path d="M92.88184,79a2,2,0,0,0,0,4h3a2,2,0,0,0,0-4Z"/><path d="M121.86719,93.08887a2.00015,2.00015,0,0,0,3.65625-1.623,31.55,31.55,0,0,0-1.44922-2.8623,1.99994,1.99994,0,0,0-3.4707,1.98828A27.41742,27.41742,0,0,1,121.86719,93.08887Z"/><path d="M115.06641,116.14063a10.58455,10.58455,0,0,1-2.41113.71875,1.99993,1.99993,0,1,0,.66992,3.94336,14.62658,14.62658,0,0,0,3.32324-.98828,2,2,0,0,0-1.582-3.67383Z"/><path d="M125.97266,104.94531a2.00018,2.00018,0,0,0,1.99414-1.876Q128.00049,102.5332,128,102a19.71815,19.71815,0,0,0-.1377-2.28125,1.99977,1.99977,0,0,0-3.97266.46289A15.85307,15.85307,0,0,1,124,102c0,.27344-.00879.54785-.02539.82129a2.00045,2.00045,0,0,0,1.87207,2.12012C125.88965,104.94434,125.93066,104.94531,125.97266,104.94531Z"/><path d="M108.88184,81a2.0001,2.0001,0,0,0-2-2h-3a2,2,0,0,0,0,4h3A2.0001,2.0001,0,0,0,108.88184,81Z"/><path d="M118.52832,81.8916a14.62553,14.62553,0,0,0-2.9375-1.8418,2.00018,2.00018,0,1,0-1.68555,3.62793,10.63488,10.63488,0,0,1,2.12891,1.34082,1.99991,1.99991,0,1,0,2.49414-3.127Z"/><path d="M105,117h-3a2,2,0,0,0,0,4h3a2,2,0,0,0,0-4Z"/><path d="M78,119a2.0001,2.0001,0,0,0,2,2h3a2,2,0,0,0,0-4H80A2.0001,2.0001,0,0,0,78,119Z"/><path d="M81.88184,83H85a2,2,0,0,0,0-4H81.88184a2,2,0,0,0,0,4Z"/><path d="M67,119a2.0001,2.0001,0,0,0,2,2h3a2,2,0,0,0,0-4H69A2.0001,2.0001,0,0,0,67,119Z"/><path d="M56,119a2.0001,2.0001,0,0,0,2,2h3a2,2,0,0,0,0-4H58A2.0001,2.0001,0,0,0,56,119Z"/><path d="M55.02832,40h-3a2,2,0,0,0,0,4h3a2,2,0,0,0,0-4Z"/><path d="M77.02832,40h-3a2,2,0,0,0,0,4h3a2,2,0,0,0,0-4Z"/><path d="M69,81a2.0001,2.0001,0,0,0,2,2h3a2,2,0,0,0,0-4H71A2.0001,2.0001,0,0,0,69,81Z"/><path d="M43.40918,42.83691a18.49032,18.49032,0,0,0-2.55859,2.18164A1.99989,1.99989,0,1,0,43.708,47.81738a14.39615,14.39615,0,0,1,2.002-1.707,2.00056,2.00056,0,0,0-2.30078-3.27344Z"/><path d="M47.127,79.916a2.0001,2.0001,0,0,0,1.4082,2.45313,22.39114,22.39114,0,0,0,3.23242.61719A1.91311,1.91311,0,0,0,52.00293,83a1.99995,1.99995,0,0,0,.22949-3.98633,18.36486,18.36486,0,0,1-2.65234-.50586A1.99846,1.99846,0,0,0,47.127,79.916Z"/><path d="M38.748,51.27246a2.0006,2.0006,0,0,0-2.5625,1.19727,20.24362,20.24362,0,0,0-.876,3.21,2.001,2.001,0,0,0,1.60352,2.33008,2.03226,2.03226,0,0,0,.36523.0332,1.99965,1.99965,0,0,0,1.96484-1.63672,16.23467,16.23467,0,0,1,.70215-2.57129A2.00018,2.00018,0,0,0,38.748,51.27246Z"/><path d="M38.9873,72.75391a1.99915,1.99915,0,0,0-.4668,2.78906,17.368,17.368,0,0,0,2.22461,2.55078,2,2,0,1,0,2.74219-2.91211,13.3731,13.3731,0,0,1-1.71094-1.96094A1.998,1.998,0,0,0,38.9873,72.75391Z"/><path d="M66.02832,40h-3a2,2,0,0,0,0,4h3a2,2,0,0,0,0-4Z"/><path d="M58,81a2.0001,2.0001,0,0,0,2,2h3a2,2,0,0,0,0-4H60A2.0001,2.0001,0,0,0,58,81Z"/><path d="M35.25,67.31738a1.99931,1.99931,0,0,0,1.97363,1.69629,2.03611,2.03611,0,0,0,.30664-.02344A1.9995,1.9995,0,0,0,39.20313,66.71,17.89338,17.89338,0,0,1,39,64.02441a2.00031,2.00031,0,0,0-2-1.998h-.002A2.0001,2.0001,0,0,0,35,64.02832,21.79667,21.79667,0,0,0,35.25,67.31738Z"/><path d="M126.74316,8.14258l-20-8A2.00065,2.00065,0,0,0,104,2V36a2,2,0,0,0,4,0V19.35468l18.74316-7.49725a2.00092,2.00092,0,0,0,0-3.71484ZM108,15.0459V4.9541L120.61523,10Z"/><text x="0" y="143" fill="#000000" font-size="5px" font-weight="bold" font-family="'Helvetica Neue', Helvetica, Arial-Unicode, Arial, Sans-serif">Created by Creative Mahira</text><text x="0" y="148" fill="#000000" font-size="5px" font-weight="bold" font-family="'Helvetica Neue', Helvetica, Arial-Unicode, Arial, Sans-serif">from the Noun Project</text></svg>